<?xml version="1.0" encoding="utf-8"?>

<!DOCTYPE svg PUBLIC "-//W3C//DTD SVG 1.1//EN" "http://www.w3.org/Graphics/SVG/1.1/DTD/svg11.dtd">
<svg version="1.1" id="Layer_1" xmlns="http://www.w3.org/2000/svg" xmlns:xlink="http://www.w3.org/1999/xlink" x="0px" y="0px"
	 viewBox="861.044 -54 822.956 1730.407" enable-background="new 861.044 -54 822.956 1730.407" xml:space="preserve">
<g>
	<path d="M1623.805,685.239c2.128-3.227,3.591-6.563,4.346-9.913c1.047-4.332,0.297-8.729-0.573-12.456
		c-0.412-3.333-1.59-6.538-3.408-9.269c-1.939-2.913-4.513-5.11-7.446-6.354c-0.462-1.325-0.099-2.642,0.253-3.916
		c0.185-0.668,0.375-1.358,0.447-2.045c0.083-0.685,0.156-1.383,0.226-2.058c0.218-2.097,0.444-4.264,1.003-6.341l0.003-0.013
		l-0.009-0.009c-0.829-0.843-1.533-1.808-2.215-2.742c-0.339-0.465-0.69-0.946-1.05-1.403c-0.201-0.273-0.497-0.508-0.783-0.735
		c-0.623-0.495-1.212-0.962-0.938-1.811c0.278-2.127,0.481-4.299,0.677-6.4c0.205-2.192,0.416-4.458,0.714-6.676
		c0.276-2.855-0.464-5.634-1.181-8.322c-0.709-2.664-1.444-5.418-1.187-8.244c0.558-5.248-0.243-10.031-2.318-13.833
		c-0.661-1.122-1.126-2.353-1.575-3.544c-0.452-1.197-0.919-2.435-1.585-3.56c-2.093-3.636-4.556-6.881-7.322-9.647
		c-3.074-3.004-6.149-5.847-9.97-7.624c-1.048-0.478-2.103-1.001-3.123-1.507c-2.923-1.451-5.946-2.952-9.224-3.576
		c-1.085-0.19-1.883-0.932-2.653-1.65c-0.692-0.644-1.407-1.31-2.335-1.596c-0.309-0.136-0.621-0.202-0.954-0.202
		c-0.707,0-1.395,0.308-2.06,0.606c-0.62,0.278-1.262,0.565-1.927,0.61c-0.748,0.081-1.526,0.122-2.312,0.122
		c-2.875,0-6.058-0.548-9.461-1.631c-6.951-6.621-12.293-12.341-16.814-18.001c-2.861-3.531-5.279-7.457-7.618-11.253
		c-1.887-3.062-3.838-6.229-6.01-9.172c-1.292-2.037-2.915-3.863-4.484-5.628c-1.524-1.715-3.101-3.489-4.37-5.454
		c-4.308-6.273-6.807-13.597-9.223-20.68c-0.162-0.474-0.323-0.947-0.485-1.42c-3.971-11.637-5.784-23.903-7.151-35.426l0,0
		c0.009-0.878,0.019-1.785,0.037-2.686c0.259,0.137,0.72,0.376,0.96,0.498l0.06,0.031l-0.03-0.061
		c-0.49-1.018-0.942-2.085-1.383-3.262c-0.303-7.995-0.309-16.505,1.686-24.569c0.991-3.538,2.599-7.081,4.912-10.832
		c2.231-3.617,4.799-6.916,7.017-9.665c0.697-0.893,1.413-1.798,2.106-2.674c4.037-5.102,8.211-10.377,11.074-16.349
		c1.123-2.529,1.843-4.649,2.268-6.671c0.535-2.545,0.571-4.833,0.111-6.996c-0.926-5-3.791-9.316-6.749-13.236
		c-1.801-2.32-2.104-5.271-2.396-8.124c-0.051-0.495-0.103-1.008-0.162-1.501c-0.233-3.475-3.458-5.912-6.528-6.528
		c-0.078-0.534-0.144-1.084-0.209-1.617c-0.232-1.928-0.473-3.923-1.314-5.708c-0.715-1.318-2.009-1.999-3.26-2.658
		c-0.703-0.37-1.43-0.753-2.045-1.244l-0.012-0.01c-1.461-1.179-2.97-2.398-3.66-4.15c-0.427-1.584,0.059-3.153,0.529-4.67
		c0.164-0.529,0.333-1.076,0.458-1.609c0.797-2.703,1.306-6.525-0.8-9.385c-1.571-2.209-4.395-2.753-6.951-2.995
		c-1.901-0.149-3.845-0.188-5.724-0.226c-3.274-0.066-6.66-0.134-9.936-0.785c-1.134-0.218-1.86-0.621-2.286-1.271
		c-1.152-1.48-2.439-2.766-3.824-3.824l0,0c-0.878-0.869-1.861-1.645-2.811-2.394c-0.587-0.463-1.195-0.942-1.771-1.439
		c-0.657-0.529-1.15-1.221-1.626-1.891c-0.441-0.62-0.898-1.262-1.485-1.775c-1.532-1.414-3.077-2.928-4.721-4.627
		c0.774,0.226,1.403,0.718,2.012,1.198c0.506,0.399,1.029,0.811,1.639,1.075l0.057,0.025l-0.028-0.056
		c-0.321-0.647-0.599-1.306-0.877-1.978c0.644,0.556,1.195,0.976,1.724,1.311l0.003,0.002c0.58,0.395,1.173,0.792,1.747,1.175
		c1.953,1.305,3.973,2.654,5.825,4.177c0.904,0.604,1.646,1.409,2.364,2.187c0.645,0.699,1.311,1.421,2.094,1.999l0.04,0.029
		l-0.003-0.049c-0.109-1.675-1.2-2.93-2.253-4.142c-0.071-0.081-0.141-0.161-0.21-0.242c0.176-0.112,0.491-0.314,0.663-0.424
		c0.757,0.643,1.482,1.348,2.182,2.031c0.981,0.956,1.996,1.945,3.117,2.777l0.032-0.032c-0.929-1.309-2.089-2.449-3.21-3.552
		c-0.399-0.393-0.813-0.799-1.209-1.207c-0.187-0.171-0.372-0.356-0.551-0.535c-0.63-0.63-1.282-1.281-2.185-1.496
		c-0.029-0.028-0.082-0.078-0.118-0.109c-0.117-0.81-0.721-1.32-1.305-1.812c-0.124-0.104-0.251-0.211-0.37-0.319
		c-1.456-1.161-2.656-2.286-3.668-3.44l0,0c-0.212-0.285-0.422-0.58-0.626-0.865c-0.615-0.861-1.252-1.748-2.025-2.499
		c0.661,0.079,1.34,0.133,1.998,0.184c0.312,0.024,0.635,0.05,0.951,0.077l0.024,0.002l0-0.024c0.002-0.136,0.007-0.272,0.012-0.417
		c0.038-1.079,0.081-2.3-1.025-2.867c-0.071-0.126-0.141-0.251-0.212-0.377c-0.388-0.69-0.786-1.403-1.143-2.118
		c0.153,0.117,0.351,0.268,0.553,0.421c0.237,0.18,0.473,0.359,0.631,0.481c0.489,1.008,1.614,1.429,2.703,1.836
		c0.44,0.164,0.856,0.32,1.23,0.512c0.23,0.342,0.66,0.519,1.278,0.524h0.028l-0.006-0.028c-0.181-0.857-0.352-1.702-0.505-2.514
		c0.568,0.035,1.121,0.073,1.646,0.114c0.776,0.721,1.509,1.293,2.239,1.748l0.055,0.035l-0.022-0.061
		c-0.539-1.522-1.631-2.725-2.688-3.889c-0.365-0.402-0.743-0.818-1.09-1.24c-0.584-0.573-1.161-1.18-1.718-1.766
		c-1.41-1.483-2.869-3.016-4.604-4.177c-0.877-1.246-2.04-2.3-3.165-3.32c-0.366-0.332-0.744-0.674-1.104-1.017l-0.007-0.006h0
		l-0.067-0.062c-0.189-0.173-0.473-0.434-0.632-0.575c-0.938-2.401-2.405-4.533-3.716-6.302l-0.005-0.006
		c-3.295-4.696-6.339-8.127-9.577-10.796c-0.356-0.392-0.803-0.691-1.236-0.98c-0.145-0.097-0.294-0.197-0.436-0.298
		c-0.113-0.291-0.284-0.443-0.522-0.467c-2.165-1.908-4.679-3.413-7.11-4.869c-0.293-0.176-0.586-0.351-0.879-0.527l-0.006-0.003
		l-0.166,0.005c-0.656-0.329-1.32-0.684-1.963-1.026c-2.124-1.133-4.319-2.305-6.69-2.828c-0.671-0.418-1.421-0.836-2.293-1.278
		l-0.012-0.006l-0.171,0.107c-1.107-0.519-2.293-0.855-3.439-1.18c-0.28-0.079-0.568-0.161-0.851-0.244l0.002-0.007l-0.029,0
		l-0.017-0.005l-0.002,0.004l-0.753-0.018l-0.095-0.485l-0.413,0.235c-8.416-2.176-15.748-3.235-22.417-3.235
		c-3.723,0-7.33,0.335-10.721,0.995c-3.787,0.463-7.409,1.686-10.796,2.9c-0.498,0.221-1.019,0.428-1.522,0.628
		c-1.556,0.62-3.165,1.261-4.433,2.407c-3.801,1.646-8.578,4.046-11.82,8.013c-0.7,0.68-1.24,1.499-1.762,2.292
		c-0.486,0.738-0.99,1.499-1.619,2.146c-0.757-1.706-1.547-3.44-2.313-5.118c-4.372-9.593-8.895-19.513-10.017-30.204
		c-0.449-3.781-0.073-7.606,0.291-11.305c0.214-2.184,0.437-4.442,0.487-6.668c0.084-1.654,0.093-3.336,0.101-4.963
		c0.009-1.573,0.017-3.2,0.093-4.794c0.02-0.177,0.035-0.356,0.051-0.546c0.09-1.066,0.182-2.168,1.108-2.799
		c1.922-1.526,3.535-3.421,5.094-5.254c0.623-0.732,1.267-1.49,1.922-2.212c3.957-4.469,6.549-8.146,8.405-11.923
		c3.707-6.891,7.398-14.377,9.294-22.417c0.484-1.972,0.509-4.019,0.532-5.999c0.022-1.884,0.046-3.832,0.465-5.711
		c0.245-1.233,0.488-2.465,0.732-3.697c0.549-2.78,1.115-5.654,1.695-8.478c1.208-6.085,3.098-12.105,4.926-17.926
		c0.265-0.843,0.53-1.686,0.792-2.529c0.366-1.183,0.78-2.387,1.181-3.551c1.427-4.15,2.903-8.442,2.637-12.929
		c0.013-0.25-0.055-0.455-0.203-0.61c-0.168-0.176-0.428-0.273-0.733-0.273c-0.505,0-0.976,0.264-1.149,0.641
		c-5.622,6.658-11.23,13.991-17.651,23.077c-3.337,4.673-5.513,10.07-7.617,15.289c-0.462,1.145-0.939,2.329-1.42,3.485
		c-0.665,1.68-1.358,3.383-2.028,5.029c-1.56,3.832-3.173,7.795-4.551,11.772c-1.215,3.393-1.732,7.01-2.233,10.509
		c-0.184,1.291-0.375,2.624-0.598,3.927c-0.261,1.906-0.573,3.841-0.875,5.712c-0.807,5.002-1.642,10.174-1.585,15.34
		c-0.111,3.944-0.041,7.951,0.026,11.827c0.059,3.432,0.121,6.981,0.057,10.473c-0.018,2.366-0.26,4.763-0.494,7.081
		c-0.327,3.244-0.666,6.598-0.396,9.921c0.849,11.002,5.633,21.082,10.259,30.831c1.112,2.344,2.262,4.768,3.332,7.153
		c-2.215,2.166-3.754,4.908-4.45,7.931c-3.8,0.743-7.132,1.98-9.903,3.674c-2.968-4.647-6.696-8.816-10.301-12.848
		c-0.483-0.54-0.966-1.08-1.447-1.621c-5.088-5.866-10.597-11.517-15.925-16.982c-1.607-1.648-3.268-3.352-4.892-5.036
		c-2.544-2.677-5.356-5.164-8.074-7.569c-1.578-1.396-3.211-2.84-4.772-4.304c-0.9-1.432-1.791-2.904-2.653-4.328
		c-2.079-3.433-4.229-6.984-6.672-10.258c-2.606-3.624-5.584-7.042-8.852-10.161c-3.245-3.096-6.794-5.914-10.547-8.375
		c-1.031-5.113-1.276-10.405-1.512-15.523c-0.027-0.576-0.053-1.151-0.081-1.726c-0.213-3.665-0.811-7.345-1.39-10.903
		c-0.453-2.786-0.922-5.666-1.202-8.521c-0.284-1.667,0.906-2.382,2.166-3.139c0.627-0.376,1.275-0.766,1.717-1.281
		c0.946-0.945,1.928-1.898,2.879-2.82c4.731-4.588,9.623-9.333,12.471-15.425c2.505-4.883,4.237-8.692,5.617-12.349
		c1.753-4.65,2.869-8.935,3.41-13.099c0.45-3.287-0.057-6.621-0.549-9.159c-0.571-3.062-0.36-6.218-0.156-9.27
		c0.043-0.631,0.086-1.283,0.122-1.923c0.104-1.393,0.199-2.812,0.291-4.184c0.371-5.553,0.755-11.295,1.854-16.854
		c0.112-0.578,0.225-1.156,0.336-1.735c0.954-4.924,1.939-10.016,3.155-14.972c1.48-5.84,2.593-11.096,1.21-16.286
		c-0.153-0.626-0.729-0.834-1.286-1.036c-0.252-0.091-0.49-0.178-0.689-0.301l-0.013-0.008l-0.013,0.009
		c-0.888,0.665-1.61,1.248-2.244,1.933c-5.318,5.714-10.526,11.802-15.479,18.095c-0.244,0.306-0.488,0.613-0.732,0.919
		c-2.166,2.714-4.406,5.52-6.179,8.576c-2.218,3.734-3.633,7.916-5.001,11.96l-0.165,0.488c-0.957,2.988-1.961,6.014-2.931,8.94
		c-1.13,3.408-2.299,6.931-3.4,10.414c-1.178,3.905-2.512,8.33-2.583,12.882c-0.038,3.99-0.047,8.045-0.056,11.966
		c-0.01,4.228-0.02,8.6-0.065,12.901c-0.016,4.97,0.851,9.941,1.69,14.748c0.174,0.997,0.354,2.029,0.523,3.042
		c0.514,3.102,1.167,6.233,1.798,9.261c0.998,4.788,2.03,9.739,2.539,14.696c0.302,2.512,0.423,5.083,0.54,7.57
		c0.161,3.425,0.327,6.966,0.969,10.407c-14.411-7.121-29.861-14.717-45.21-22.017c-3.691-1.792-7.145-4.122-10.485-6.374
		c-0.628-0.424-1.276-0.861-1.916-1.288c-8.267-5.425-16.687-11.056-25.027-16.736c-6.397-4.58-12.38-7.273-18.293-8.231
		c-0.959-0.132-1.803-0.196-2.58-0.196c-2.133,0-3.8,0.486-5.095,1.484c-1.843,1.332-2.747,3.752-2.689,7.196
		c0.177,3.939,1.074,8.046,2.745,12.554c-0.762-0.719-1.517-1.468-2.247-2.193c-0.708-0.703-1.44-1.43-2.175-2.125
		c-14.241-14.028-29.699-25.411-45.943-33.834c-10.031-4.792-20.185-9.754-30.006-14.554c-8.606-4.207-17.505-8.556-26.288-12.774
		c-3.909-1.856-7.528-4.355-11.027-6.772l-0.591-0.408c-3.006-2.125-6.104-4.227-9.099-6.26c-2.921-1.982-5.94-4.032-8.874-6.101
		c-1.774-1.21-3.564-2.462-5.294-3.674c-2.875-2.012-5.847-4.092-8.836-6.037c-7.078-4.873-15.326-8.234-23.851-9.719
		c-1.801-0.245-3.288-0.36-4.68-0.36c-3.499,0-6.26,0.759-8.441,2.319c-1.362,1.013-2.328,2.494-2.87,4.401
		c-0.431,1.514-0.599,3.307-0.499,5.329c0.257,6.037,1.893,11.792,4.271,18.577c0.16,0.407,0.318,0.826,0.47,1.231
		c0.666,1.769,1.354,3.598,2.495,5.154l0.05,0.068l-0.008-0.083c-0.312-3.112-0.992-6.245-1.65-9.276
		c-1.108-5.105-2.254-10.383-1.672-15.718c0.178-2.289,1.612-4.992,4.337-5.518c0.688-0.113,1.403-0.171,2.125-0.171
		c3.86,0,7.547,1.582,11.112,3.112c9.445,4.201,17.998,10.306,26.27,16.209c0.648,0.463,1.296,0.925,1.943,1.386
		c17.475,13.562,31.72,28.914,42.338,45.629c2.897,4.464,5.589,9.344,8.004,14.506c2.239,4.788,4.308,9.967,6.149,15.392
		c1.68,5.238,2.9,9.856,3.73,14.115c1.009,5.179,1.473,9.923,1.418,14.503c-0.049,2.34-0.237,4.715-0.419,7.011
		c-0.272,3.436-0.554,6.99-0.373,10.501c0.183,4.98,0.678,10.021,1.156,14.895c0.118,1.203,0.24,2.447,0.356,3.671
		c0.344,4.276,1.148,8.468,2.087,13.115c0.186,0.546,0.37,1.092,0.554,1.638c1.124,3.333,2.285,6.779,3.848,9.996
		c0.673,1.448,1.342,2.926,1.989,4.356c1.474,3.258,2.998,6.627,4.678,9.857c1.888,3.897,4.822,7.181,7.662,10.358
		c1.127,1.236,2.263,2.504,3.362,3.73c1.838,2.051,3.737,4.171,5.654,6.21c0.337,0.372,0.691,0.741,1.033,1.098
		c0.843,0.88,1.715,1.79,2.419,2.817c-3.6-2.118-7.168-4.422-10.62-6.651c-2.496-1.611-5.077-3.278-7.648-4.861
		c-14.202-9.096-29.554-18.143-48.316-28.471c-13.237-6.769-27.094-13.76-42.363-21.371c-2.9-1.431-5.83-2.926-8.663-4.372
		c-6.181-3.155-12.573-6.417-19.054-9.214c-2.116-0.915-4.252-1.882-6.318-2.817c-5.172-2.341-10.521-4.763-16.008-6.573
		c-0.718-0.243-1.449-0.506-2.156-0.76c-3.096-1.113-6.297-2.264-9.654-2.264c-0.112,0-0.225,0.001-0.339,0.004
		c-2.361,0.382-4.478,0.771-6.468,1.664c-0.862,0.37-1.754,0.725-2.616,1.068c-2.817,1.121-5.731,2.28-8.174,4.187l-0.005,0.006
		c-0.687,1.079-0.847,2.307-0.43,3.283c1.591,4.444,3.166,8.408,4.814,12.117c0.298,0.842,1.076,1.252,1.828,1.649
		c0.246,0.13,0.501,0.264,0.729,0.41l0.008,0.004l0.009-0.001c3.074-0.504,6.02-1.611,8.87-2.683
		c0.922-0.347,1.875-0.705,2.819-1.038c1.497-0.53,3.179-0.788,5.141-0.788c1.554,0,3.128,0.159,4.598,0.332
		c0.871,0.124,1.765,0.234,2.629,0.34c3.475,0.427,7.069,0.869,10.324,2.366c9.138,3.979,18.52,7.813,27.594,11.52l2.224,0.909
		c7.807,3.053,15.816,7.152,23.803,12.184c0.409,0.262,0.817,0.523,1.227,0.784c4.906,3.133,9.978,6.372,14.049,10.69
		c1.437,1.141,2.161,2.829,2.862,4.46c0.144,0.336,0.293,0.684,0.446,1.019c-0.37,0.294-0.737,0.612-1.093,0.919
		c-1.139,0.985-2.317,2.003-3.798,2.456c-1.303,0.454-2.623,0.931-3.899,1.392c-2.973,1.075-6.047,2.186-9.132,3.09
		c-3.141,0.887-6.438,1.152-9.627,1.408c-1.528,0.123-3.108,0.25-4.651,0.444c-0.339,0.056-0.69,0.11-1.029,0.162
		c-2.846,0.439-5.789,0.892-7.704,3.212c-2.052,2.931-4.145,6.089-6.789,10.242c-0.057,0.098-0.116,0.196-0.176,0.296
		c-0.762,1.282-1.627,2.734-1.091,4.268c1.138,4.216,2.734,8.166,4.144,11.474c0.147,0.328,0.292,0.658,0.438,0.988
		c1.062,2.406,2.16,4.893,3.747,7.055c1.508,1.918,3.48,3.418,5.388,4.869c0.269,0.205,0.539,0.41,0.806,0.616
		c4.482,3.449,8.522,6.571,12.579,9.861l0.011,0.009l0.013-0.005c0.448-0.198,0.904-0.39,1.345-0.576l0.056-0.024l-0.003-0.018
		c-0.768-5.169-2.272-10.253-3.726-15.169c-0.221-0.746-0.448-1.517-0.67-2.275c-0.147-0.532-0.327-1.068-0.502-1.587
		c-0.457-1.356-0.93-2.758-0.849-4.231c0.066-1.885,0.197-3.799,0.324-5.65c0.069-1.009,0.141-2.052,0.201-3.078
		c0.03-0.382,0.037-0.783,0.044-1.171c0.026-1.444,0.053-2.937,1.224-3.971c0.231,0.019,0.462,0.037,0.694,0.054
		c1.162,0.089,2.364,0.18,3.518,0.46c4.595,1.192,9.27,2.378,13.791,3.524l1.958,0.496c0.225,0.062,0.461,0.118,0.689,0.172
		c0.905,0.215,1.842,0.439,2.517,1.121c0.322,0.286,0.657,0.573,0.982,0.85c1.318,1.125,2.681,2.289,3.58,3.823
		c0.727,1.143,1.521,2.27,2.291,3.362c1.633,2.318,3.322,4.715,4.452,7.382c0.603,1.335,1.292,2.664,1.96,3.949
		c1.495,2.879,3.04,5.855,3.709,9.108c0.182,0.667,0.365,1.333,0.548,1.999c1.299,4.723,2.641,9.608,3.273,14.565
		c2.14,14.337,6.404,28.167,12.674,41.105c0.802,1.619,1.608,3.269,2.388,4.864c0.738,1.511,1.502,3.074,2.26,4.607
		c1.804,4.009,4.204,7.772,6.524,11.412c1.126,1.766,2.29,3.592,3.373,5.425c0.272,0.418,0.534,0.856,0.788,1.279
		c0.644,1.076,1.311,2.189,2.216,3.101c5.612,5.421,11.174,10.632,16.533,15.487c0.503,0.492,1.041,0.968,1.561,1.429
		c1.258,1.114,2.56,2.267,3.473,3.726c1.568,2.4,3.194,4.819,4.766,7.16c0.618,0.919,1.235,1.839,1.853,2.761
		c2.528,3.449,4.327,7.394,6.068,11.208c0.867,1.899,1.762,3.862,2.737,5.741c1.65,2.973,2.53,6.297,3.38,9.512
		c0.299,1.13,0.608,2.298,0.945,3.431c0.469,1.672,0.942,3.374,1.398,5.019c1.175,4.236,2.39,8.616,3.68,12.898
		c0.953,1.876,2.08,3.702,3.17,5.468c0.767,1.242,1.56,2.528,2.286,3.82c0.879,1.681,2.276,2.975,3.626,4.226
		c0.641,0.593,1.303,1.206,1.902,1.854c0.591,0.529,1.163,1.108,1.717,1.669c1.297,1.315,2.638,2.674,4.347,3.503
		c1.269,0.672,2.537,1.396,3.764,2.096c1.729,0.987,3.516,2.007,5.336,2.899l0.624,0.248c3.369,1.336,6.853,2.717,10.351,3.886
		c1.232,0.428,2.507,0.817,3.74,1.194c3.252,0.993,6.615,2.02,9.56,3.866c4.738,2.937,9.25,6.303,13.412,10.004
		c0.616,0.559,1.249,1.12,1.862,1.662c2.241,1.985,4.558,4.038,6.504,6.392c0.413,0.517,0.888,1.011,1.347,1.489
		c1.074,1.118,2.186,2.275,2.616,3.823c0.136,0.444,0.309,0.89,0.476,1.321c0.358,0.926,0.729,1.883,0.768,2.892
		c-0.089,1.736-0.14,3.504-0.188,5.215c-0.091,3.219-0.185,6.547-0.547,9.805c-0.569,5.419-0.297,11.232,0.832,17.767
		c0.022,0.242,0.066,0.487,0.112,0.747c0.147,0.827,0.3,1.682-0.312,2.35c-3.319,4.509-6.099,8.729-8.496,12.902
		c-2.627,4.613-4.478,8.227-6.004,11.717c-1.93,4.416-3.261,8.503-4.068,12.496c-1.164,5.785-1.055,11.997,0.316,17.961
		c0.57,2.973,1.498,5.902,2.396,8.734c0.52,1.64,1.057,3.335,1.519,5.02c1.355,4.859,1.222,9.988,1.094,14.947l-0.011,0.436
		c-0.086,4.423-1.313,8.747-2.501,12.929c-0.154,0.544-0.308,1.086-0.459,1.628c-1.308,4.676-2.896,9.351-4.431,13.873
		c-0.616,1.812-1.251,3.685-1.861,5.533c-0.518,1.651-1.066,3.326-1.595,4.947c-2.096,6.416-4.262,13.051-5.214,19.856
		c-0.412,3.118-0.543,5.799-0.399,8.196c0.18,3.006,0.78,5.609,1.835,7.955c1.795,4.187,3.98,9.129,6.565,14.044
		c2.461,4.813,4.046,9.269,4.846,13.625c1.357,5.823,0.875,11.72,0.161,18.27c-2.023,14.368-6.926,28.281-11.668,41.737
		c-0.3,0.852-0.601,1.705-0.901,2.557c-0.261,0.774-0.533,1.559-0.796,2.32c-1.434,4.139-2.917,8.419-3.245,12.883
		c-1.255,6.231-0.266,12.535,0.734,17.33c1.802,9.163,5.075,18.392,9.726,27.433c-0.507,0.742-0.99,1.52-1.457,2.271
		c-0.306,0.493-0.622,1.002-0.943,1.497c-0.515,0.896-1.494,1.223-2.442,1.539c-0.445,0.149-0.905,0.302-1.305,0.513
		c-4.219,1.453-8.259,3.498-12.165,5.477c-2.983,1.51-6.068,3.072-9.213,4.361c-0.538,0.229-1.088,0.459-1.619,0.68
		c-2.454,1.026-4.99,2.087-7.35,3.41c-0.872,0.478-1.828,0.803-2.754,1.118c-1.04,0.354-2.114,0.719-3.077,1.304l-0.106,0.058
		c-1.15,0.629-2.581,1.411-2.464,2.951c-0.448,2.27,0.978,4.685,3.249,5.499c1.43,0.527,3.006,0.795,4.688,0.795
		c2.135,0,4.479-0.429,6.967-1.274c-3.549,4.334-6.696,7.513-9.902,10.002c-0.754,0.746-1.537,1.49-2.295,2.21
		c-2.107,2.001-4.285,4.071-6.082,6.425c-0.813,0.657-1.563,1.417-2.289,2.153c-1.27,1.287-2.582,2.617-4.27,3.429
		c-0.341,0.248-0.718,0.481-1.117,0.728c-1.432,0.887-3.056,1.893-3.021,3.762c-0.148,1.818,1.335,3.303,2.776,3.913
		c0.891,0.381,1.899,0.574,2.996,0.574c1.22,0,2.593-0.235,4.197-0.719c4.302-1.379,8.285-3.658,12.136-5.864
		c0.285-0.163,0.57-0.327,0.854-0.489c3.83-1.932,7.533-4.468,11.004-7.54c1.292-1.125,2.502-2.374,3.672-3.582
		c1.111-1.147,2.259-2.333,3.477-3.411c1.927-1.78,4.12-3.292,6.24-4.755c1.168-0.806,2.376-1.639,3.527-2.508
		c2.682-1.93,5.269-4.07,7.77-6.139c0.479-0.396,0.958-0.793,1.438-1.188c0.518,0.054,1.049,0.08,1.578,0.08
		c3.359,0,6.865-1.07,10.14-3.096c4.314,7.997,7.03,16.589,8.915,23.183c2.192,7.936,4.458,16.142,5.893,24.568
		c0.714,4.909,1.103,9.938,1.478,14.802c0.118,1.523,0.239,3.098,0.369,4.647c0.869,9.853,0.682,19.7,0.501,29.221
		c-0.166,9.197-1.236,18.357-3.18,27.225c-2.508,11.085-5.881,22.132-9.144,32.815c-1.075,3.519-2.186,7.157-3.249,10.742
		c-1.908-0.316-3.857-0.476-5.792-0.476c-2.501,0-4.989,0.266-7.394,0.791c-2.824,0.645-5.573,1.678-8.233,2.679
		c-1.331,0.5-2.708,1.018-4.076,1.48c-2.322,0.768-4.71,1.461-7.02,2.131c-3.116,0.903-6.338,1.839-9.441,2.97
		c-3.236,1.13-6.469,2.432-9.596,3.691c-4.055,1.633-8.249,3.321-12.494,4.653c-7.344,2.291-14.823,4.069-22.228,5.285
		c-3.58,0.553-7.131,1.518-10.566,2.451c-1.213,0.33-2.467,0.67-3.704,0.988c-0.804,0.233-1.627,0.462-2.423,0.684
		c-3.713,1.034-7.553,2.103-10.992,4.005c-1.508,0.802-2.962,1.745-4.369,2.656c-1.262,0.818-2.567,1.663-3.908,2.406
		c-0.834,0.477-1.69,0.954-2.518,1.416c-4.173,2.328-8.489,4.736-12.01,8.103c-0.761,0.673-1.249,1.564-1.721,2.426
		c-0.311,0.568-0.632,1.155-1.029,1.676c-1.041,1.34-1.519,2.976-1.981,4.558c-0.155,0.529-0.314,1.075-0.493,1.601
		c-0.58,1.948-0.576,4.083,0.011,6.345c0.486,1.874,1.374,3.843,2.636,5.855c1.618,2.588,4.283,4.634,7.922,6.082
		c1.132,0.453,2.353,0.511,3.535,0.568c0.819,0.039,1.666,0.08,2.478,0.251c0.611,0.165,1.205,0.454,1.779,0.733
		c0.888,0.432,1.807,0.879,2.816,0.879c0.187,0,0.375-0.016,0.558-0.046c2.175-0.236,4.336-0.753,6.425-1.252
		c2.006-0.479,4.08-0.975,6.163-1.223c2.039-0.151,3.852-1.055,5.605-1.929c0.629-0.314,1.279-0.638,1.925-0.921
		c0.608-0.12,1.238-0.178,1.926-0.178c1.49,0,3.002,0.282,4.464,0.556c0.563,0.105,1.145,0.214,1.712,0.304
		c5.123,1.085,10.423,1.517,15.548,1.935c1.72,0.141,3.498,0.285,5.242,0.453c5.396,0.634,10.805,1.754,16.034,2.839
		c1.615,0.335,3.285,0.681,4.931,1.008c-0.688,0.608-1.511,0.687-2.154,0.687c-0.336,0-0.686-0.024-1.024-0.048
		c-0.342-0.024-0.696-0.049-1.04-0.049c-0.445,0-0.806,0.04-1.136,0.127c-3.14,0.648-6.543,1.025-10.112,1.123
		c-1.787-0.459-3.595-1.002-5.344-1.526c-4.724-1.417-9.61-2.883-14.663-2.889h-0.022l0,0.022c-0.01,0.443-0.019,1.317-0.024,1.759
		c-0.28-0.035-0.56-0.07-0.841-0.105c-1.815-0.229-3.691-0.464-5.539-0.464c-1.614,0-3.024,0.181-4.311,0.554l-0.075,0.022
		l0.075,0.022c0.052,0.015,0.106,0.031,0.161,0.046c0.725,0.208,1.548,0.443,1.953,1.147c0.571,0.72,1.057,1.529,1.527,2.312
		c0.714,1.189,1.453,2.42,2.507,3.365l0.005,0.003c1.435,0.703,3.056,0.718,4.623,0.733c0.789,0.007,1.605,0.015,2.381,0.111
		c0.426,0.064,0.865,0.094,1.344,0.094c0.933,0,1.875-0.121,2.786-0.238c0.912-0.117,1.855-0.239,2.791-0.239
		c0.137,0,0.274,0.003,0.406,0.008c2.174-0.053,4.3-0.622,6.356-1.171c0.922-0.246,1.875-0.501,2.821-0.706
		c0.246-0.066,0.497-0.098,0.767-0.098c0.655,0,1.31,0.195,1.945,0.384c0.379,0.113,0.771,0.23,1.157,0.303
		c1.246,0.316,2.553,0.484,3.817,0.647c2.141,0.276,4.355,0.562,6.332,1.573c1.609,0.79,3.5,1.157,5.95,1.157
		c1.215,0,2.439-0.086,3.623-0.17l0.251-0.017c2.244-0.181,3.732-1.886,4.588-3.289c0.746-0.13,1.531-0.193,2.4-0.193
		c1.473,0,2.98,0.185,4.437,0.364c1.225,0.151,2.491,0.306,3.728,0.351c0.58,0.06,1.187,0.089,1.855,0.089
		c1.133,0,2.284-0.087,3.396-0.17c1.11-0.083,2.259-0.169,3.387-0.169c0.733,0,1.395,0.035,2.026,0.109
		c2.637,0,5.208,0.72,7.695,1.417c0.97,0.271,1.972,0.552,2.962,0.785c18.673,5.609,37.13,12.839,54.979,19.831
		c3.58,1.402,7.283,2.852,10.927,4.266c0.707,0.274,1.415,0.548,2.122,0.822c7.891,3.057,16.05,6.218,23.955,9.632
		c9.805,4.208,19.448,9.018,27.591,13.17c-7.4,5.651-15.518,10.269-24.128,13.726c-1.249,0.496-2.521,0.999-3.751,1.484
		c-6.698,2.642-13.624,5.374-20.193,8.602c-15.19,7.424-30.829,16.041-46.483,25.612c-16.675,10.19-32.282,21.702-46.387,34.215
		c-13.547,11.823-26.161,24.262-40.934,39.301c-5.75,5.916-11.684,11.844-17.423,17.577c-6.454,6.446-13.127,13.113-19.566,19.792
		c-7.842,8.082-15.355,16.715-22.621,25.064c-5.556,6.385-11.302,12.986-17.155,19.298c-5.32,5.784-11.065,11.854-17.658,16.909
		c-6.642,5.197-14.398,9.598-23.712,13.452c-0.107-0.302-0.309-0.88-0.41-1.175c-0.132-0.312-0.343-0.463-0.647-0.463
		c-0.296,0-0.638,0.147-0.939,0.277c-0.147,0.064-0.287,0.124-0.41,0.163c-0.687,0.193-1.023,0.802-1.348,1.391
		c-0.086,0.156-0.175,0.317-0.268,0.466c-0.27,0.006-0.543,0.009-0.813,0.009c-3.206,0-6.447-0.412-9.632-1.224
		c-2.98-0.746-6.084-1.025-9.087-1.294c-1.031-0.092-2.097-0.188-3.141-0.302l-0.316-0.028c-1.432-0.126-2.912-0.257-4.372-0.257
		c-1.783,0-3.306,0.202-4.657,0.617c-2.075,0.604-4.093,1.928-6.172,4.047c-0.496,0.561-1.168,0.903-1.817,1.235
		c-0.704,0.359-1.433,0.731-1.946,1.381c-2.124,2.348-4.036,5.104-5.681,8.193c-1.463,2.745-2.762,5.844-3.864,9.209
		c-0.382,1.147-0.763,2.317-1.132,3.448c-1.127,3.46-2.292,7.037-3.662,10.477c-2.521,6.503-4.386,13.274-6.025,19.622
		c-2.35,8.438-4.985,17.367-9.043,25.631c-1.249,2.381-2.574,4.772-3.856,7.086c-2.205,3.98-4.485,8.095-6.453,12.288
		c-2.006,4.425-3.756,9.388-5.348,15.171c-1.409,5.118-2.553,10.336-3.698,15.676c-1.068,4.848-1.731,9.751-1.97,14.572
		c-0.115,2.062-0.377,4.146-0.63,6.162c-0.345,2.745-0.701,5.583-0.692,8.408c0.012,0.281,0.007,0.573,0,0.881
		c-0.025,1.224-0.051,2.489,1.08,3.211c0.015,0.242,0.03,0.486,0.044,0.731c0.172,2.934,0.35,5.969,2.104,8.405
		c1.703,2.518,4.742,4.144,7.744,4.144c1.226,0,2.382-0.266,3.434-0.79c2.162-0.942,3.803-2.616,5.391-4.235
		c0.998-1.018,2.03-2.07,3.183-2.932c2.028-1.896,3.572-4.241,5.065-6.508c0.889-1.35,1.809-2.746,2.82-4.032
		c1.668-2.177,2.862-4.676,4.016-7.092c1.162-2.431,2.363-4.946,4.046-7.126c2.45-3.249,5.106-6.327,7.895-9.148
		c4.596-4.639,8.842-9.736,12.949-14.665c1.328-1.594,2.702-3.243,4.068-4.852c-0.027,0.912,0.272,1.792,0.868,2.549
		c0.565,0.717,1.373,1.284,2.276,1.594l0.04,0.001c0.653,0,1.239-0.297,1.805-0.584c0.229-0.116,0.465-0.235,0.701-0.333
		c-1.184,2.26-2.528,4.478-3.828,6.624c-0.579,0.956-1.178,1.944-1.755,2.924c-0.576,1.141-1.606,1.869-2.602,2.573
		c-0.676,0.478-1.375,0.972-1.936,1.594c-1.31,1.424-3.009,2.63-5.192,3.685c-3.739,1.882-6.721,5.284-8.18,9.334l-0.03,0.081
		l0.066-0.056c0.681-0.586,1.155-1.348,1.613-2.085c0.345-0.556,0.703-1.13,1.146-1.623c1.695-1.925,3.506-3.2,5.383-3.79
		c2.173-0.738,4.169-1.688,5.932-2.823c2.772-1.767,5.913-3.768,7.651-6.938c1.16-2.061,2.181-4.235,3.169-6.336
		c0.983-2.093,2-4.256,3.153-6.307c0.833-1.641,1.93-3.173,2.991-4.654c1.751-2.446,3.562-4.974,4.217-8.05
		c0.156-1.342,1.2-2.053,2.211-2.741c0.336-0.229,0.684-0.466,0.99-0.72c1.753-1.37,3.994-3.244,5.782-5.592
		c2.679-3.94,6.219-7.249,9.616-10.301c0.439-0.449,0.915-0.888,1.376-1.311c1.244-1.145,2.53-2.33,3.273-3.893l0.028-0.059
		l-0.059,0.03c-0.904,0.451-1.735,1.048-2.54,1.626c-0.907,0.652-1.844,1.325-2.891,1.791c0.414-0.815,1.038-1.48,1.641-2.123
		c0.323-0.344,0.656-0.699,0.956-1.077c0.903-1.65,1.549-3.657,1.972-6.134l0.015-0.086l-0.055,0.068
		c-0.969,1.197-1.688,2.645-2.384,4.046c-1.163,2.34-2.364,4.76-4.765,6.1c-1.236,0.573-2.179,1.552-3.092,2.498
		c-0.243,0.252-0.493,0.512-0.746,0.76c0.522-2.036,1.11-4.201,1.859-6.274c3.442-3.573,7.153-6.993,10.742-10.301
		c2.384-2.196,4.848-4.468,7.212-6.763c3.695-3.629,7.722-7.016,11.617-10.292c2.404-2.022,4.89-4.113,7.273-6.24
		c7.873-7.049,15.966-14.117,23.793-20.952c6.2-5.415,12.61-11.013,18.871-16.567c3.479-3.049,6.993-6.178,10.391-9.205
		c10.285-9.16,20.92-18.631,32.033-27.161c4.977-3.868,10.146-7.654,15.145-11.315c2.34-1.714,4.761-3.488,7.131-5.246
		c1.374-1.013,2.748-2.028,4.122-3.042c6.436-4.75,13.091-9.661,19.689-14.419c15.757-11.27,31.429-21.913,44.682-30.838
		c6.42-4.383,13.007-8.749,19.377-12.972c7.983-5.292,16.237-10.765,24.24-16.32c2.538-1.76,5.103-3.573,7.583-5.325
		c4.999-3.533,10.168-7.186,15.377-10.599c9.072-5.901,17.607-10.739,26.095-14.79c3.33-1.594,6.73-3.185,10.017-4.724
		c4.834-2.262,9.833-4.602,14.704-6.996c2.264-1.114,4.593-2.201,6.844-3.252c6.226-2.908,12.664-5.915,18.482-9.815
		c8.325-5.541,14.794-11.36,19.774-17.79c21.122,13.262,42.636,25.723,63.941,37.037c9.21,4.967,18.675,9.824,27.828,14.521
		c7.891,4.05,16.051,8.237,24.011,12.476c3.597,1.909,7.218,3.917,10.719,5.859c4.72,2.617,9.6,5.323,14.489,7.825
		c4.63,2.308,8.54,3.927,12.304,5.096c4.644,1.442,8.926,2.143,13.093,2.143c0.104,0,0.208,0,0.312-0.001
		c5.234-0.028,10.549-1.02,15.8-2.948c4.959-1.821,9.718-4.418,14.143-7.72c4.362-3.249,10.058-8.749,12.422-16.505
		c2-6.664,2.452-13.589,2.622-18.877c0.255-9.529,0.139-19.222,0.027-28.596c-0.012-1.019-0.024-2.037-0.036-3.056
		c-0.256-19.49-0.789-38.731-1.585-57.19c-0.836-19.407-1.992-38.622-3.433-57.11c-1.987-24.488-5.491-48.612-8.982-71.034
		c-3.896-24.946-7.536-47.456-12.632-70.324c-1.268-5.862-2.659-11.8-4.003-17.543c-1.65-7.047-3.357-14.334-4.852-21.542
		c-0.212-0.922,0.117-1.806,0.436-2.661c0.132-0.353,0.267-0.718,0.361-1.077c1.408-4.289,2.753-8.677,4.054-12.92
		c1.973-6.438,4.014-13.094,6.317-19.543c0.335-1.22,1.228-2.095,2.091-2.942c0.37-0.363,0.753-0.738,1.084-1.134
		c2.685-3.109,4.526-6.031,5.63-8.935c0.984-2.633,2.367-6.066,4.331-9.264c0.828-1.375,1.677-2.772,2.498-4.123
		c5.675-9.34,11.542-18.999,15.578-29.365c0.584-1.628,1.309-3.23,2.009-4.778c0.692-1.531,1.408-3.114,1.989-4.723
		c1.278,1.604,2.039,3.521,2.776,5.377c0.507,1.278,1.032,2.6,1.719,3.799l0.028,0.048l0.015-0.053
		c0.799-2.964,1.589-6.407,0.831-9.759c-0.839-4.138-1.223-8.195-1.143-12.062c0.44,0.305,0.63,0.832,0.814,1.342
		c0.073,0.201,0.148,0.409,0.236,0.598c0.67,1.85,1.504,3.668,2.31,5.426c0.769,1.676,1.564,3.41,2.217,5.171
		c0.077,0.177,0.152,0.365,0.223,0.548c0.331,0.84,0.672,1.708,1.553,2.104l0.026,0.011l0.006-0.028
		c0.675-3.096,0.683-6.204,0.025-8.986c-0.504-2.201-1.077-4.424-1.631-6.574c-0.503-1.954-1.024-3.974-1.492-5.974
		c-0.246-0.784,0.159-1.477,0.55-2.148c0.136-0.234,0.278-0.476,0.386-0.716c1.687,2.502,3.574,4.853,5.522,7.243
		c0.084,0.09,0.164,0.185,0.249,0.286c0.373,0.442,0.76,0.899,1.405,0.899c0.013,0,0.027,0,0.04,0l0.028-0.001l-0.006-0.027
		c-0.374-1.752-1.163-3.381-1.925-4.956c-0.744-1.536-1.512-3.123-1.9-4.828c1.051,1.334,1.845,2.88,2.613,4.375
		c1.045,2.036,2.127,4.141,3.868,5.732l0.039,0.035l0-0.052c-0.011-2.285-1.29-4.211-2.251-5.46
		c-3.464-4.794-5.993-10.307-7.315-15.942c-0.478-1.534-0.239-3.107-0.008-4.629c0.056-0.372,0.115-0.755,0.161-1.132
		c0.573,0.84,1.218,1.691,2.193,2.156l0.058,0.028l-0.028-0.058c-1.415-2.963-0.47-6.045,0.444-9.025
		c0.234-0.766,0.477-1.557,0.67-2.32c0.667-1.79-0.086-3.416-0.814-4.988c-0.499-1.078-1.016-2.193-1.081-3.357
		c0.165-1.842-0.126-3.679-0.408-5.456c-0.225-1.417-0.457-2.883-0.457-4.347c-0.168-1.375-0.156-2.784-0.144-4.147
		c0.014-1.681,0.029-3.417-0.294-5.098l-0.044-0.002c-0.218,0.756-0.408,1.46-0.58,2.152c-0.764-1.222-1.145-2.63-1.512-3.993
		c-0.212-0.783-0.43-1.592-0.718-2.355c-0.199-0.819-0.547-1.605-0.884-2.366c-0.507-1.146-1.032-2.33-1.041-3.63
		c-0.345-6.089-0.292-11.971,0.16-17.483c0.263-4.128,0.793-8.298,1.306-12.332c0.466-3.663,0.947-7.451,1.227-11.198
		c0.135-5.342,0.089-10.776,0.043-16.032c-0.035-4.028-0.07-8.192-0.024-12.288C1619.549,690.836,1621.938,688.07,1623.805,685.239z
		 M1179.962,1146.249c1.007,0.295,2.042,0.626,3.083,0.987C1182.031,1147.123,1180.902,1146.903,1179.962,1146.249z
		 M1458.127,278.89c1.014,0.89,2.064,1.81,3.193,2.597c3.455,2.442,6.857,5.077,10.147,7.625c0.94,0.728,1.911,1.48,2.869,2.217v0
		l0.005,0.004c1.18,0.89,2.289,1.933,3.297,3.101c-1.804-0.275-3.204-0.701-4.407-1.339c-1.841-2.12-4.05-3.928-6.185-5.676
		c-0.62-0.508-1.262-1.033-1.884-1.557l0,0c-0.645-0.598-1.32-1.195-1.973-1.773c-1.943-1.718-3.951-3.494-5.503-5.586
		C1457.833,278.632,1457.98,278.761,1458.127,278.89z M1423.378,501.159c2.136,0.591,4.343,1.203,6.322,2.284
		c-0.679,1.005-1.26,2.09-1.821,3.141c-0.39,0.729-0.792,1.483-1.224,2.203c-0.106,0.176-0.213,0.363-0.315,0.544
		c-0.546,0.966-1.111,1.965-2.25,2.262c-1.647,0.595-3.241,1.374-4.782,2.126c-1.059,0.517-2.153,1.052-3.255,1.522
		c-0.099-4.011-0.057-8.004-0.009-11.045c1.384,0.435,2.743,1.005,4.058,1.556c1.33,0.558,2.706,1.134,4.106,1.571l0.017-0.042
		c-0.837-0.465-1.68-0.952-2.495-1.424c-1.539-0.891-3.13-1.811-4.754-2.616l0.002,0l-0.055-0.027l-0.006-0.003l0,0l-0.049-0.023
		c-0.268-0.129-0.713-0.343-0.955-0.462c0.042-0.776,0.086-1.459,0.132-2.084l0.376,0.145c2.878,1.107,5.853,2.252,8.95,2.782
		l0.008-0.045c0,0,0,0,0,0l0,0c-0.002,0-0.004,0-0.006-0.001c-3.223-0.623-6.113-2.202-8.907-3.729
		c-1.263-0.69-2.57-1.404-3.885-2.018c-0.214-0.162-0.425-0.331-0.627-0.503c0.923,0.589,1.973,0.935,2.99,1.271
		c0.35,0.115,0.712,0.234,1.065,0.363c0.946,0.189,1.813,0.431,2.652,0.738l0.004,0.001
		C1420.189,500.277,1421.81,500.725,1423.378,501.159z M1415.837,513.858c-0.017,0.188,0,0.393,0.018,0.611
		c0.049,0.592,0.098,1.205-0.567,1.449c-0.282,0.187-0.566,0.373-0.85,0.558c-1.084,0.709-2.205,1.443-3.247,2.258
		c0.036-2.278,0.117-4.594,0.196-6.833c0.059-1.703,0.121-3.463,0.163-5.197l0,0c0.054-1.247,0.12-2.513,0.178-3.634
		c0.474,0.123,0.958,0.244,1.426,0.361c0.874,0.219,1.778,0.445,2.663,0.692c0,1.008-0.01,2.034-0.019,3.026
		C1415.777,509.348,1415.756,511.622,1415.837,513.858z M1420.571,223.605l-0.388,0.581c-2.639-0.773-5.401-1.149-8.072-1.511
		c-3.021-0.41-6.143-0.834-9.094-1.837C1409.266,221.113,1415.391,222.389,1420.571,223.605z M1402.834,874.166
		c0.193,3.612-0.314,6.236-1.598,8.248c0.739-13.17,0.669-24.757-0.213-35.423c-0.158-2.286-0.305-4.611-0.448-6.859
		c-0.303-4.771-0.617-9.704-1.04-14.547l-0.027-0.332c-0.122-1.492-0.248-3.032-0.211-4.55c2.209,8.618,4.543,17.44,6.937,26.225
		c-0.029,2.814-1.008,5.463-1.954,8.024c-0.842,2.279-1.713,4.635-1.921,7.111C1401.784,865.63,1401.94,869.59,1402.834,874.166z
		 M1405.893,500.499c0.375,0.164,0.758,0.327,1.128,0.485c1.066,0.456,2.17,0.927,3.227,1.459l0.029,0.015v-0.001l0.162,0.077
		c-0.12,2.895-0.208,5.839-0.293,8.687c-0.032,1.068-0.064,2.137-0.098,3.206c-0.504-0.997-0.767-2.094-1.022-3.156
		c-0.145-0.604-0.294-1.23-0.487-1.828c-0.608-2.339-1.332-4.682-2.033-6.949C1406.305,501.84,1406.096,501.165,1405.893,500.499z
		 M1397.315,220.964c2.089,0,3.951,0.254,5.687,0.776c-0.809,0.008-1.628,0.008-2.422,0.009c-3.155,0.002-6.417,0.005-9.598,0.461
		c-0.284-0.111-0.809-0.321-1.116-0.444C1392.1,221.367,1394.724,220.964,1397.315,220.964z M1318.808,233.872
		c4.344,3.572,9.276,6.568,13.623,9.209c3.233,2.974,5.768,6.671,8.221,10.245l0.108,0.157l-0.466,0.319
		c-0.113,0.001-0.226,0.002-0.338,0.002c-0.466,0-0.943-0.013-1.406-0.026c-0.463-0.013-0.943-0.025-1.414-0.025
		c-1.357,0-2.943,0.098-4.419,0.825l-0.016-0.003l-0.002,0.012l-0.051,0.025l0.043,0.008c-0.122,0.674-0.609,1.193-1.453,1.541
		c0.28-0.334,0.728-0.872,1.061-1.273l0.273-0.328l-0.08,0.03c-0.374,0.139-0.756,0.278-1.125,0.413
		c-2.268,0.826-4.612,1.68-6.646,3.058c-1.367,1.065-2.647,2.279-3.885,3.451c-0.455,0.431-0.924,0.876-1.392,1.307
		c-1.066-2.884-2.009-5.875-2.921-8.769c-0.747-2.37-1.52-4.82-2.357-7.201c-2.147-6.492-4.828-12.904-7.42-19.105
		c-0.951-2.275-1.933-4.626-2.876-6.948C1308.412,225.338,1313.324,229.406,1318.808,233.872z M1205.296,198.268
		c-12.436-18.72-24.409-34.476-36.602-48.171c-0.902-0.995-1.812-2.015-2.692-2.999c-1.685-1.887-3.427-3.838-5.191-5.71
		c-0.208-0.222-0.429-0.445-0.643-0.66c-0.922-0.925-1.875-1.882-2.138-3.216l-0.032-0.111c-1.164-4.058-2.367-8.254-2.146-12.521
		c0.039-1.94,1.396-4.033,3.522-4.033h0.03c0.031,0,0.062,0,0.093,0c3.089,0,5.903,1.385,8.623,2.724
		c0.599,0.295,1.218,0.6,1.824,0.882c3.985,2.185,7.728,4.499,11.124,6.879c8.825,5.847,16.996,12.117,24.285,18.638
		c7.866,7.035,14.906,14.541,20.927,22.309c10.807,13.928,18.023,30.12,20.866,46.826c0.805,4.509,0.813,9.146,0.821,13.63
		c0.006,3.372,0.012,6.858,0.356,10.268c0.11,1.059,0.219,2.118,0.327,3.178c0.696,6.81,1.416,13.853,2.727,20.69
		c0.94,4.175,2.362,8.283,3.737,12.255c0.781,2.257,1.589,4.591,2.3,6.913c-1.293-0.748-2.624-1.482-3.912-2.192
		c-2.107-1.162-4.286-2.362-6.354-3.659c-1.479-3.454-2.865-7.022-4.205-10.473c-1.1-2.832-2.238-5.76-3.421-8.611
		c-1.662-3.862-3.54-7.7-5.357-11.413c-0.709-1.449-1.442-2.947-2.152-4.425c-0.602-1.22-1.211-2.462-1.799-3.664
		c-2.99-6.107-6.082-12.421-9.653-18.346c-1.044-1.758-2.1-3.551-3.12-5.285C1213.592,211.431,1209.612,204.668,1205.296,198.268z
		 M1257.923,301.848c-0.459,1.025-0.959,1.849-1.527,2.517c-0.739-2.131-1.58-4.263-2.394-6.325
		c-0.325-0.822-0.66-1.672-0.985-2.512C1254.908,297.059,1256.514,299.127,1257.923,301.848z M1241.617,529.04
		c-1.359,1.351-2.855,2.6-4.301,3.807c-1.411,1.178-2.87,2.396-4.202,3.708c-2.038,1.805-3.982,3.774-5.862,5.678
		c-0.841,0.851-1.709,1.731-2.575,2.585c2.284-5.693,6.992-9.747,11.547-13.669c0.412-0.354,0.822-0.708,1.231-1.063
		c0.884-0.885,2.123-0.942,3.322-0.998C1241.054,529.077,1241.342,529.064,1241.617,529.04z M1418.485,968.497
		c-0.596,1.115-1.239,2.232-1.86,3.312c-1.052,1.827-2.128,3.705-3.031,5.656c-0.114,0.972-1.707,2.701-1.719,2.936
		c-1.161,2.391-2.381,4.808-3.56,7.145c-2.038,4.038-4.145,8.213-6.027,12.409c-4.977,10.63-9.835,22.29-14.85,35.643
		c-4.576,12.183-8.879,24.708-12.848,36.427c-9.034,26.848-17.304,48.959-26.025,69.582c-1.794-0.539-3.588-1.081-5.381-1.622
		c-8.405-2.537-17.097-5.161-25.705-7.518c-10.581-2.883-21.488-5.17-32.037-7.382c-1.925-0.404-3.916-0.821-5.873-1.236
		c-1.641-0.377-3.319-0.752-4.942-1.114c-10.384-2.314-21.12-4.707-30.622-9.907c-4.981-2.708-9.923-6.154-15.105-10.537
		c0.004-0.274,0.039-0.555,0.072-0.827c0.069-0.559,0.14-1.138-0.055-1.673c-0.45-0.892-1.393-1.159-2.304-1.418
		c-0.167-0.047-0.325-0.092-0.48-0.141c-1.801-5.598-3.493-11.137-5.029-16.463c-0.072-0.23-0.145-0.461-0.217-0.692
		c-1.107-3.529-2.252-7.178-4.719-10.028c1.336-3.615,2.721-7.281,4.06-10.826c4.188-11.089,8.519-22.555,11.978-34.107
		c2.536-8.57,5.411-18.284,7.897-27.947c1.769-7.061,2.627-14.411,3.456-21.518c0.054-0.462,0.108-0.924,0.162-1.387
		c0.908-7.898,0.938-15.972,0.968-23.781c0.01-2.729,0.02-5.551,0.069-8.323c0.44-12.284,1.203-22.484,2.402-32.101
		c0.007-0.051,0.013-0.113,0.02-0.182c0.044-0.416,0.118-1.113,0.436-1.113c0.111,0,0.249,0.085,0.411,0.254
		c2.039,1.622,4.541,1.963,6.281,1.963c0.147,0,0.296-0.003,0.444-0.008c2.521-0.082,4.773-1.902,5.239-4.234
		c0.93-4.271,1.719-8.451,1.167-12.631c-0.479-3.574-0.37-7.232-0.265-10.769c0.009-0.301,0.018-0.602,0.027-0.901
		c0.175-1.942,0.704-3.846,1.216-5.688c0.371-1.337,0.756-2.721,1.002-4.107c1.205-5.492,0.724-11.185,0.26-16.69
		c-0.023-0.276-0.046-0.551-0.07-0.825c-0.023-0.565-0.118-1.143-0.21-1.702c-0.195-1.189-0.396-2.419,0.082-3.58
		c0.345-1.025,0.693-2.068,1.029-3.077c1.434-4.301,2.917-8.748,4.649-13.02c0.159-0.339,0.318-0.679,0.478-1.018
		c1.702-3.627,3.463-7.377,5.518-10.883c3.533-1.925,7.23-3.686,10.807-5.389c2.982-1.42,6.064-2.887,9.04-4.445
		c0.989,4.654,2.088,9.626,3.422,14.457c2.424,9.305,3.344,19.027,4.233,28.428c0.233,2.474,0.476,5.032,0.741,7.541
		c0.303,2.979,0.738,6.11,2.386,8.767l0.01,0.016l0.017-0.006c1.195-0.395,1.954-1.37,2.687-2.313
		c0.281-0.361,0.572-0.736,0.882-1.069c5.541-6.339,11.462-12.52,17.188-18.497l0.177-0.185c0.776-0.931,1.85-1.399,3.073-1.87
		c1.357,1.65,2.046,3.687,2.711,5.656c0.199,0.588,0.404,1.196,0.624,1.784c3.545,9.936,7.34,20.055,11.277,30.076
		c0.869,2.078,1.707,4.216,2.517,6.283c2.16,5.512,4.393,11.211,7.463,16.399c3.352,5.689,6.834,11.794,9.335,18.359
		c1.943,4.47,2.627,9.355,3.29,14.079c0.242,1.724,0.492,3.506,0.799,5.239c0.618,4.117,1.261,8.299,1.883,12.344
		c0.747,4.86,1.52,9.886,2.255,14.833c0.481,3.104,1.056,5.542,1.807,7.674c0.968,2.745,2.229,4.976,3.854,6.824l0.008,0.009
		l0.011-0.001c0.528-0.043,1.075-0.072,1.628-0.087l0.01,0l0.276-0.29c1.811-1.903,3.682-3.871,4.43-6.458
		c1.771,0.92,3.407,1.386,4.862,1.386c1.062,0,2.039-0.249,2.907-0.741c0.53,2.687,0.874,5.46,1.206,8.142
		c0.55,4.427,1.118,9.006,2.537,13.331l0.006,0.02l0.02-0.005c1.058-0.246,2.15-0.918,2.045-2.065
		c-0.297-6.592-1.128-13.411-2.54-20.847c0.828-0.45,1.651-0.975,2.447-1.484c2.236-1.429,4.548-2.906,7.321-2.945
		c0.391,2.154,0.56,4.374,0.724,6.522c0.169,2.213,0.344,4.501,0.76,6.71l0.044,0.002c1.276-4.441,0.773-9.163,0.112-13.197
		c-0.688-4.618-1.956-9.542-3.993-15.496l-0.012-0.035l-0.026,0.026c-2.145,2.173-5.151,3.47-8.04,3.47
		c-0.902,0-1.78-0.128-2.608-0.379c-0.738-2.402-1.174-4.536-1.333-6.52c0.736-3.909,1.466-7.885,2.172-11.729
		c0.758-4.128,1.542-8.397,2.335-12.591c1.781-8.786,3.273-18.16,4.696-29.498c3.836-2.614,7.9-5.014,11.832-7.336l0.296-0.175
		l1.003,0.28c0,0,0,0,0.173,3.309c0.215,0.355,0.361,0.776,0.402,1.268c0.191,2.308,0.419,4.615,0.647,6.922
		c1.061,5.94,2.8,12.196,5.253,18.891c2.733,7.602,6.566,14.578,11.479,22.714C1426.194,955.376,1422.172,961.95,1418.485,968.497z
		 M1430.243,501.749c-0.704-0.269-1.422-0.535-2.116-0.793c-1.677-0.622-3.409-1.265-5.076-1.991
		c0.109,0.011,0.234,0.023,0.363,0.035c0.233,0.022,0.473,0.046,0.629,0.062c1.059,0.257,2.118,0.585,3.143,0.902
		c1.153,0.357,2.346,0.726,3.546,0.997C1430.607,501.159,1430.371,501.538,1430.243,501.749z M1432.22,721.482
		c0.132-2.271,0.325-4.581,0.513-6.814c0.425-5.087,0.866-10.348,0.616-15.542c-0.147-3.612-0.209-7.888,0.447-12.205
		c0.772-5.387,2.584-10.612,4.336-15.666l0.211-0.607c0.145-0.554,0.485-0.99,0.952-1.473l0.004-0.005l0.001-0.006
		c0.527-2.484,1.606-4.829,2.649-7.097c0.446-0.969,0.907-1.971,1.317-2.968c0.56-1.19,1.117-2.407,1.656-3.585
		c1.398-3.054,2.843-6.21,4.476-9.204c3.6,5.397,7.292,10.867,10.862,16.157c2.745,4.068,5.584,8.274,8.363,12.42
		c-0.354,0.168-0.708,0.336-1.061,0.504c-0.548,0.261-1.095,0.52-1.643,0.778l-0.02,0.01l0.009,0.02
		c0.867,2.111,2.036,4.112,3.166,6.047c0.638,1.093,1.298,2.222,1.896,3.36c3.091,5.411,6.221,11.121,9.3,16.965
		c0.659,2.299,1.459,3.9,2.588,5.187c4.437,8.452,8.232,17.481,11.28,26.837c1.604,5.431,2.359,11.637,2.309,18.972
		c0.013,1.348-0.182,2.699-0.37,4.006c-0.172,1.195-0.349,2.43-0.369,3.662c-0.2,0.038-0.408,0.073-0.609,0.108
		c-1.177,0.2-2.394,0.407-3.221,1.33c-1.347,1.468-2.117,3.341-2.863,5.151c-0.846,2.056-1.72,4.183-3.442,5.695l-0.006,0.007
		c-0.416,0.871-0.928,1.761-1.566,2.719c0.002-0.129,0.004-0.295,0.006-0.46c0.003-0.206,0.005-0.411,0.008-0.546l0.001-0.035
		l-0.032,0.013c-2.22,0.901-4.344,2.082-6.398,3.224c-1.692,0.941-3.442,1.914-5.234,2.724c-1.502-0.718-2.9-1.672-4.251-2.593
		c-0.981-0.669-1.996-1.361-3.041-1.957c-2.575-1.649-5.321-3.098-7.977-4.499c-2.531-1.335-5.148-2.716-7.612-4.267
		c-0.287-0.192-0.592-0.376-0.886-0.554c-0.881-0.533-1.791-1.084-2.4-1.929c-3.881-5.767-6.481-10.716-8.181-15.575
		c-0.212-0.597-0.427-1.195-0.641-1.794C1434.304,739.465,1431.14,730.641,1432.22,721.482z M1472.122,1197.899
		c-13.72-9.387-26.612-17.343-39.41-24.321c4.029-5.499,8.146-11.076,12.126-16.47c10.031-13.591,20.404-27.646,30.299-41.688
		c2.065,5.407,4.004,10.967,5.879,16.344c1.096,3.141,2.228,6.389,3.374,9.572c6.917,19.34,13.42,39.364,19.328,59.516
		c2.566,8.961,5.278,18.287,8.292,28.513C1500.996,1219.136,1488.319,1209.136,1472.122,1197.899z M1615.343,679.1
		c-0.452-4.277-0.976-8.817-1.936-13.224c0.32-0.133,0.88-0.367,1.165-0.489l0.019-0.008l-0.006-0.02
		c-0.245-0.736-0.527-1.472-0.8-2.185c-0.531-1.385-1.081-2.816-1.369-4.299c0.965,0.549,1.498,1.523,2.014,2.465
		c0.22,0.404,0.449,0.822,0.708,1.2c0.136,0.183,0.261,0.397,0.393,0.624c0.403,0.689,0.82,1.402,1.607,1.402
		c0.113,0,0.233-0.016,0.355-0.046C1617.708,669.598,1616.965,674.636,1615.343,679.1z"/>
	<path d="M1465.037,279.716l-0.053-0.018l0.026,0.051c0.706,1.346,1.907,2.398,3.295,2.884l0.063,0.022l-0.036-0.056
		C1467.347,281.072,1466.269,280.13,1465.037,279.716z"/>
	<path d="M1482.344,290.113c0.102,0,0.222-0.017,0.356-0.05l0.014-0.003l0.003-0.014c0.074-0.326,0.055-0.562-0.054-0.7
		c-0.126-0.158-0.373-0.19-0.732-0.095l-0.013,0.003l-0.003,0.013c-0.083,0.319-0.071,0.551,0.036,0.69
		C1482.031,290.06,1482.163,290.113,1482.344,290.113z"/>
</g>
</svg>
